<?xml version="1.0" standalone="no"?>
<!DOCTYPE svg PUBLIC "-//W3C//DTD SVG 20010904//EN"
 "http://www.w3.org/TR/2001/REC-SVG-20010904/DTD/svg10.dtd">
<svg version="1.0" xmlns="http://www.w3.org/2000/svg"
 width="232.000000pt" height="87.000000pt" viewBox="0 0 232.000000 87.000000"
 preserveAspectRatio="xMidYMid meet">

<g transform="translate(0.000000,87.000000) scale(0.100000,-0.100000)"
fill="#000000" stroke="none">
<path d="M562 668 c-32 -32 -4 -76 58 -92 l25 -7 -22 20 c-26 22 -30 41 -9 41
7 0 17 -10 21 -22 6 -19 8 -20 12 -6 2 10 -2 30 -9 45 -15 31 -55 42 -76 21z"/>
<path d="M678 633 c7 -3 16 -2 19 1 4 3 -2 6 -13 5 -11 0 -14 -3 -6 -6z"/>
<path d="M740 572 l0 -62 -32 0 c-77 0 -148 -68 -148 -142 0 -112 117 -180
219 -126 45 23 88 84 78 110 -3 8 -7 6 -12 -7 -24 -68 -65 -105 -118 -105 -36
0 -27 15 13 24 38 7 68 39 86 91 18 53 20 285 2 267 -7 -7 -24 -12 -38 -12
-14 0 -31 5 -38 12 -9 9 -12 -2 -12 -50z"/>
<path d="M305 502 c-22 -11 -48 -33 -57 -50 -22 -38 -23 -122 -3 -162 44 -84
206 -84 250 0 8 16 15 31 15 35 0 10 -101 5 -120 -7 -21 -14 -50 -3 -58 20 -3
9 23 12 93 12 l98 0 -6 40 c-10 75 -52 116 -128 125 -31 4 -55 0 -84 -13z m98
-86 c8 -19 -1 -26 -33 -26 -33 0 -43 9 -29 27 15 17 55 17 62 -1z"/>
<path d="M900 415 c0 -104 15 -156 48 -174 34 -18 97 -13 126 10 l26 20 0 -20
c0 -19 6 -21 55 -21 l55 0 0 140 0 140 -55 0 -55 0 0 -84 c0 -86 -12 -116 -45
-116 -33 0 -45 30 -45 116 l0 84 -55 0 -55 0 0 -95z"/>
</g>
</svg>
